<mxfile host="app.diagrams.net" modified="2022-11-22T05:56:12.204Z" agent="5.0 (Windows NT 10.0; Win64; x64) AppleWebKit/537.36 (KHTML, like Gecko) Chrome/107.0.0.0 Safari/537.36" etag="kzeu1iqIF8yIdLI9uQeK" version="20.5.3" type="github">
  <diagram id="qiPPwLEvfYylUw768fwT" name="第 1 页">
    <mxGraphModel dx="1422" dy="762" grid="1" gridSize="10" guides="1" tooltips="1" connect="1" arrows="1" fold="1" page="1" pageScale="1" pageWidth="827" pageHeight="1169" math="0" shadow="0">
      <root>
        <mxCell id="0" />
        <mxCell id="1" parent="0" />
        <mxCell id="CAVFJSVyi15U4M6GEP1Y-6" value="&lt;font style=&quot;font-size: 16px;&quot; color=&quot;#007fff&quot;&gt;&lt;b&gt;部署&lt;/b&gt;&lt;/font&gt;" style="rounded=0;whiteSpace=wrap;html=1;strokeWidth=2;strokeColor=#007FFF;" vertex="1" parent="1">
          <mxGeometry x="40" y="940" width="120" height="60" as="geometry" />
        </mxCell>
        <mxCell id="CAVFJSVyi15U4M6GEP1Y-7" value="&lt;font style=&quot;font-size: 16px;&quot; color=&quot;#007fff&quot;&gt;&lt;b&gt;测试&lt;/b&gt;&lt;/font&gt;" style="rounded=0;whiteSpace=wrap;html=1;strokeWidth=2;strokeColor=#007FFF;" vertex="1" parent="1">
          <mxGeometry x="40" y="860" width="120" height="60" as="geometry" />
        </mxCell>
        <mxCell id="CAVFJSVyi15U4M6GEP1Y-8" value="&lt;font style=&quot;font-size: 16px;&quot; color=&quot;#007fff&quot;&gt;&lt;b&gt;构建相关&lt;/b&gt;&lt;/font&gt;" style="rounded=0;whiteSpace=wrap;html=1;strokeWidth=2;strokeColor=#007FFF;" vertex="1" parent="1">
          <mxGeometry x="40" y="680" width="120" height="160" as="geometry" />
        </mxCell>
        <mxCell id="CAVFJSVyi15U4M6GEP1Y-9" value="&lt;font style=&quot;font-size: 16px;&quot; color=&quot;#007fff&quot;&gt;&lt;b&gt;网络请求&lt;/b&gt;&lt;/font&gt;" style="rounded=0;whiteSpace=wrap;html=1;strokeWidth=2;strokeColor=#007FFF;" vertex="1" parent="1">
          <mxGeometry x="40" y="600" width="120" height="60" as="geometry" />
        </mxCell>
        <mxCell id="CAVFJSVyi15U4M6GEP1Y-10" value="&lt;font style=&quot;font-size: 16px;&quot; color=&quot;#007fff&quot;&gt;&lt;b&gt;规范&lt;/b&gt;&lt;/font&gt;" style="rounded=0;whiteSpace=wrap;html=1;strokeWidth=2;strokeColor=#007FFF;" vertex="1" parent="1">
          <mxGeometry x="40" y="524.5" width="120" height="60" as="geometry" />
        </mxCell>
        <mxCell id="CAVFJSVyi15U4M6GEP1Y-11" value="&lt;font style=&quot;font-size: 16px;&quot; color=&quot;#007fff&quot;&gt;&lt;b&gt;工具&lt;/b&gt;&lt;/font&gt;" style="rounded=0;whiteSpace=wrap;html=1;strokeWidth=2;strokeColor=#007FFF;" vertex="1" parent="1">
          <mxGeometry x="40" y="440" width="120" height="60" as="geometry" />
        </mxCell>
        <mxCell id="CAVFJSVyi15U4M6GEP1Y-13" value="" style="rounded=0;whiteSpace=wrap;html=1;strokeColor=#B266FF;strokeWidth=2;fontSize=16;fontColor=#007FFF;" vertex="1" parent="1">
          <mxGeometry x="180" y="940" width="580" height="60" as="geometry" />
        </mxCell>
        <mxCell id="CAVFJSVyi15U4M6GEP1Y-14" value="&lt;font color=&quot;#ffffff&quot;&gt;&lt;b&gt;jenkins&lt;/b&gt;&lt;/font&gt;" style="rounded=0;whiteSpace=wrap;html=1;strokeColor=#9933FF;strokeWidth=2;fontSize=16;fontColor=#007FFF;fillColor=#9933FF;" vertex="1" parent="1">
          <mxGeometry x="280" y="952.5" width="140" height="35" as="geometry" />
        </mxCell>
        <mxCell id="CAVFJSVyi15U4M6GEP1Y-15" value="&lt;font color=&quot;#ffffff&quot;&gt;&lt;b&gt;linux容器&lt;/b&gt;&lt;/font&gt;" style="rounded=0;whiteSpace=wrap;html=1;strokeColor=#9933FF;strokeWidth=2;fontSize=16;fontColor=#007FFF;fillColor=#9933FF;" vertex="1" parent="1">
          <mxGeometry x="520" y="952.5" width="140" height="35" as="geometry" />
        </mxCell>
        <mxCell id="CAVFJSVyi15U4M6GEP1Y-16" value="" style="rounded=0;whiteSpace=wrap;html=1;strokeColor=#FF3333;strokeWidth=2;fontSize=16;fontColor=#007FFF;" vertex="1" parent="1">
          <mxGeometry x="180" y="860" width="580" height="60" as="geometry" />
        </mxCell>
        <mxCell id="CAVFJSVyi15U4M6GEP1Y-17" value="&lt;font color=&quot;#ffffff&quot;&gt;&lt;b&gt;lighthouse&lt;/b&gt;&lt;/font&gt;" style="rounded=0;whiteSpace=wrap;html=1;strokeColor=#FF3333;strokeWidth=2;fontSize=16;fontColor=#007FFF;fillColor=#FF3333;" vertex="1" parent="1">
          <mxGeometry x="280" y="872.5" width="140" height="35" as="geometry" />
        </mxCell>
        <mxCell id="CAVFJSVyi15U4M6GEP1Y-18" value="&lt;font color=&quot;#ffffff&quot;&gt;&lt;b&gt;jest&lt;/b&gt;&lt;/font&gt;" style="rounded=0;whiteSpace=wrap;html=1;strokeColor=#FF3333;strokeWidth=2;fontSize=16;fontColor=#007FFF;fillColor=#FF3333;" vertex="1" parent="1">
          <mxGeometry x="520" y="872.5" width="140" height="35" as="geometry" />
        </mxCell>
        <mxCell id="CAVFJSVyi15U4M6GEP1Y-19" value="" style="rounded=0;whiteSpace=wrap;html=1;strokeColor=#E3AC22;strokeWidth=2;fontSize=16;fontColor=#007FFF;fillColor=#FFFFCC;" vertex="1" parent="1">
          <mxGeometry x="180" y="680" width="580" height="160" as="geometry" />
        </mxCell>
        <mxCell id="CAVFJSVyi15U4M6GEP1Y-21" value="&lt;font color=&quot;#e3ac22&quot;&gt;Node&lt;/font&gt;" style="rounded=0;whiteSpace=wrap;html=1;strokeColor=#E3AC22;strokeWidth=2;fontSize=16;fontColor=#FF3333;fillColor=#DEFFFE;dashed=1;" vertex="1" parent="1">
          <mxGeometry x="200" y="700" width="80" height="120" as="geometry" />
        </mxCell>
        <mxCell id="CAVFJSVyi15U4M6GEP1Y-22" value="&amp;nbsp; &amp;nbsp; 包管理" style="rounded=0;whiteSpace=wrap;html=1;dashed=1;strokeColor=#E3AC22;strokeWidth=2;fontSize=16;fontColor=#e3ac22;fillColor=#DEFFFE;align=left;" vertex="1" parent="1">
          <mxGeometry x="300" y="700" width="440" height="50" as="geometry" />
        </mxCell>
        <mxCell id="CAVFJSVyi15U4M6GEP1Y-23" value="&lt;font color=&quot;#ffffff&quot;&gt;&lt;b&gt;npm&lt;/b&gt;&lt;/font&gt;" style="rounded=0;whiteSpace=wrap;html=1;strokeColor=#E3AC22;strokeWidth=2;fontSize=16;fontColor=#e3ac22;fillColor=#E3AC22;" vertex="1" parent="1">
          <mxGeometry x="390" y="707.5" width="80" height="32.5" as="geometry" />
        </mxCell>
        <mxCell id="CAVFJSVyi15U4M6GEP1Y-24" value="&lt;font color=&quot;#ffffff&quot;&gt;&lt;b&gt;yarn&lt;/b&gt;&lt;/font&gt;" style="rounded=0;whiteSpace=wrap;html=1;strokeColor=#E3AC22;strokeWidth=2;fontSize=16;fontColor=#e3ac22;fillColor=#E3AC22;" vertex="1" parent="1">
          <mxGeometry x="500" y="707.5" width="80" height="32.5" as="geometry" />
        </mxCell>
        <mxCell id="CAVFJSVyi15U4M6GEP1Y-25" value="&lt;font color=&quot;#ffffff&quot;&gt;&lt;b&gt;Sonatype Nexus&lt;/b&gt;&lt;/font&gt;" style="rounded=0;whiteSpace=wrap;html=1;strokeColor=#E3AC22;strokeWidth=2;fontSize=16;fontColor=#e3ac22;fillColor=#E3AC22;" vertex="1" parent="1">
          <mxGeometry x="600" y="708.75" width="130" height="31.25" as="geometry" />
        </mxCell>
        <mxCell id="CAVFJSVyi15U4M6GEP1Y-26" value="&amp;nbsp; 打包编译" style="rounded=0;whiteSpace=wrap;html=1;dashed=1;strokeColor=#E3AC22;strokeWidth=2;fontSize=16;fontColor=#e3ac22;fillColor=#DEFFFE;align=left;" vertex="1" parent="1">
          <mxGeometry x="300" y="770" width="440" height="50" as="geometry" />
        </mxCell>
        <mxCell id="CAVFJSVyi15U4M6GEP1Y-27" value="&lt;font color=&quot;#ffffff&quot;&gt;&lt;b&gt;webpack&lt;/b&gt;&lt;/font&gt;" style="rounded=0;whiteSpace=wrap;html=1;strokeColor=#E3AC22;strokeWidth=2;fontSize=16;fontColor=#e3ac22;fillColor=#E3AC22;" vertex="1" parent="1">
          <mxGeometry x="390" y="778.75" width="80" height="32.5" as="geometry" />
        </mxCell>
        <mxCell id="CAVFJSVyi15U4M6GEP1Y-28" value="&lt;font color=&quot;#ffffff&quot;&gt;&lt;b&gt;babel&lt;/b&gt;&lt;/font&gt;" style="rounded=0;whiteSpace=wrap;html=1;strokeColor=#E3AC22;strokeWidth=2;fontSize=16;fontColor=#e3ac22;fillColor=#E3AC22;" vertex="1" parent="1">
          <mxGeometry x="490" y="778.75" width="80" height="32.5" as="geometry" />
        </mxCell>
        <mxCell id="CAVFJSVyi15U4M6GEP1Y-29" value="" style="rounded=0;whiteSpace=wrap;html=1;strokeColor=#00CCCC;strokeWidth=2;fontSize=16;fontColor=#007FFF;" vertex="1" parent="1">
          <mxGeometry x="180" y="600" width="580" height="60" as="geometry" />
        </mxCell>
        <mxCell id="CAVFJSVyi15U4M6GEP1Y-30" value="&lt;span style=&quot;font-family: ui-monospace, SFMono-Regular, &amp;quot;SF Mono&amp;quot;, Menlo, Consolas, &amp;quot;Liberation Mono&amp;quot;, monospace; text-align: start;&quot;&gt;&lt;font style=&quot;font-size: 16px;&quot; color=&quot;#ffffff&quot;&gt;&lt;b&gt;vite&lt;/b&gt;&lt;/font&gt;&lt;/span&gt;" style="rounded=0;whiteSpace=wrap;html=1;strokeColor=#E3AC22;strokeWidth=2;fontSize=16;fontColor=#e3ac22;fillColor=#E3AC22;" vertex="1" parent="1">
          <mxGeometry x="590" y="778.75" width="80" height="32.5" as="geometry" />
        </mxCell>
        <mxCell id="CAVFJSVyi15U4M6GEP1Y-31" value="&lt;span style=&quot;font-family: ui-monospace, SFMono-Regular, &amp;quot;SF Mono&amp;quot;, Menlo, Consolas, &amp;quot;Liberation Mono&amp;quot;, monospace; text-align: start;&quot;&gt;&lt;font style=&quot;font-size: 16px;&quot; color=&quot;#ffffff&quot;&gt;&lt;b&gt;...&lt;/b&gt;&lt;/font&gt;&lt;/span&gt;" style="rounded=0;whiteSpace=wrap;html=1;strokeColor=#E3AC22;strokeWidth=2;fontSize=16;fontColor=#e3ac22;fillColor=#E3AC22;" vertex="1" parent="1">
          <mxGeometry x="690" y="780" width="40" height="31.25" as="geometry" />
        </mxCell>
        <mxCell id="CAVFJSVyi15U4M6GEP1Y-32" value="&lt;font color=&quot;#ffffff&quot;&gt;&lt;b&gt;Axios&lt;/b&gt;&lt;/font&gt;" style="rounded=0;whiteSpace=wrap;html=1;strokeColor=#00CCCC;strokeWidth=2;fontSize=16;fontColor=#007FFF;fillColor=#00CCCC;" vertex="1" parent="1">
          <mxGeometry x="210" y="612.5" width="140" height="35" as="geometry" />
        </mxCell>
        <mxCell id="CAVFJSVyi15U4M6GEP1Y-33" value="&lt;font color=&quot;#ffffff&quot;&gt;&lt;b&gt;网关&lt;/b&gt;&lt;/font&gt;" style="rounded=0;whiteSpace=wrap;html=1;strokeColor=#00CCCC;strokeWidth=2;fontSize=16;fontColor=#007FFF;fillColor=#00CCCC;" vertex="1" parent="1">
          <mxGeometry x="390" y="612.5" width="140" height="35" as="geometry" />
        </mxCell>
        <mxCell id="CAVFJSVyi15U4M6GEP1Y-34" value="&lt;font color=&quot;#ffffff&quot;&gt;&lt;b&gt;Web Socket&lt;/b&gt;&lt;/font&gt;" style="rounded=0;whiteSpace=wrap;html=1;strokeColor=#00CCCC;strokeWidth=2;fontSize=16;fontColor=#007FFF;fillColor=#00CCCC;" vertex="1" parent="1">
          <mxGeometry x="570" y="612.5" width="140" height="35" as="geometry" />
        </mxCell>
        <mxCell id="CAVFJSVyi15U4M6GEP1Y-36" value="" style="rounded=0;whiteSpace=wrap;html=1;strokeColor=#66CC00;strokeWidth=2;fontSize=16;fontColor=#007FFF;" vertex="1" parent="1">
          <mxGeometry x="180" y="525" width="580" height="60" as="geometry" />
        </mxCell>
        <mxCell id="CAVFJSVyi15U4M6GEP1Y-37" value="&lt;font color=&quot;#ffffff&quot;&gt;&lt;b&gt;Typescript&lt;/b&gt;&lt;/font&gt;" style="rounded=0;whiteSpace=wrap;html=1;strokeColor=#66CC00;strokeWidth=2;fontSize=16;fontColor=#007FFF;fillColor=#66CC00;" vertex="1" parent="1">
          <mxGeometry x="210" y="536.88" width="100" height="35.75" as="geometry" />
        </mxCell>
        <mxCell id="CAVFJSVyi15U4M6GEP1Y-43" value="&lt;font color=&quot;#ffffff&quot;&gt;&lt;b&gt;Eslint&lt;/b&gt;&lt;/font&gt;" style="rounded=0;whiteSpace=wrap;html=1;strokeColor=#66CC00;strokeWidth=2;fontSize=16;fontColor=#007FFF;fillColor=#66CC00;" vertex="1" parent="1">
          <mxGeometry x="350" y="536.88" width="100" height="35.75" as="geometry" />
        </mxCell>
        <mxCell id="CAVFJSVyi15U4M6GEP1Y-44" value="&lt;font color=&quot;#ffffff&quot;&gt;&lt;b&gt;Husky&lt;/b&gt;&lt;/font&gt;" style="rounded=0;whiteSpace=wrap;html=1;strokeColor=#66CC00;strokeWidth=2;fontSize=16;fontColor=#007FFF;fillColor=#66CC00;" vertex="1" parent="1">
          <mxGeometry x="490" y="536.37" width="100" height="35.75" as="geometry" />
        </mxCell>
        <mxCell id="CAVFJSVyi15U4M6GEP1Y-45" value="&lt;font color=&quot;#ffffff&quot;&gt;&lt;b&gt;Stylelint&lt;/b&gt;&lt;/font&gt;" style="rounded=0;whiteSpace=wrap;html=1;strokeColor=#66CC00;strokeWidth=2;fontSize=16;fontColor=#007FFF;fillColor=#66CC00;" vertex="1" parent="1">
          <mxGeometry x="630" y="536.37" width="100" height="35.75" as="geometry" />
        </mxCell>
        <mxCell id="CAVFJSVyi15U4M6GEP1Y-47" value="" style="rounded=0;whiteSpace=wrap;html=1;strokeColor=#FF00FF;strokeWidth=2;fontSize=16;fontColor=#007FFF;" vertex="1" parent="1">
          <mxGeometry x="180" y="440" width="580" height="60" as="geometry" />
        </mxCell>
        <mxCell id="CAVFJSVyi15U4M6GEP1Y-48" value="&lt;font color=&quot;#ffffff&quot;&gt;&lt;b&gt;@hc/utils&lt;/b&gt;&lt;/font&gt;" style="rounded=0;whiteSpace=wrap;html=1;strokeColor=#FF00FF;strokeWidth=2;fontSize=16;fontColor=#007FFF;fillColor=#FF00FF;" vertex="1" parent="1">
          <mxGeometry x="210" y="451.88" width="100" height="35.75" as="geometry" />
        </mxCell>
        <mxCell id="CAVFJSVyi15U4M6GEP1Y-49" value="&lt;font color=&quot;#ffffff&quot;&gt;&lt;b&gt;@hc/components&lt;/b&gt;&lt;/font&gt;" style="rounded=0;whiteSpace=wrap;html=1;strokeColor=#FF00FF;strokeWidth=2;fontSize=16;fontColor=#007FFF;fillColor=#FF00FF;" vertex="1" parent="1">
          <mxGeometry x="350" y="451.88" width="140" height="38.12" as="geometry" />
        </mxCell>
        <mxCell id="CAVFJSVyi15U4M6GEP1Y-52" value="&lt;font color=&quot;#ffffff&quot;&gt;&lt;b&gt;Lodash&lt;/b&gt;&lt;/font&gt;" style="rounded=0;whiteSpace=wrap;html=1;strokeColor=#FF00FF;strokeWidth=2;fontSize=16;fontColor=#007FFF;fillColor=#FF00FF;" vertex="1" parent="1">
          <mxGeometry x="530" y="451.88" width="80" height="38.12" as="geometry" />
        </mxCell>
        <mxCell id="CAVFJSVyi15U4M6GEP1Y-53" value="&lt;font color=&quot;#ffffff&quot;&gt;&lt;b&gt;DTS??&lt;/b&gt;&lt;/font&gt;" style="rounded=0;whiteSpace=wrap;html=1;strokeColor=#E5CCFF;strokeWidth=2;fontSize=16;fontColor=#007FFF;fillColor=#E5CCFF;dashed=1;" vertex="1" parent="1">
          <mxGeometry x="650" y="451.88" width="90" height="38.12" as="geometry" />
        </mxCell>
      </root>
    </mxGraphModel>
  </diagram>
</mxfile>
